<?xml version="1.0" encoding="utf-8"?>

<svg version="1.1" xmlns="http://www.w3.org/2000/svg" xmlns:xlink="http://www.w3.org/1999/xlink" x="0px" y="0px" viewBox="0 0 3167.6 552.41" style="enable-background:new 0 0 3167.6 552.41;" xml:space="preserve">

<g id="Layer_1_xA0_Image_1_">
</g>
<g id="BLUE_CODING">
</g>
<g id="THE_CODING_TALENT_WAREHOUSE">
&#x9;<g>
&#x9;&#x9;<g>
&#x9;&#x9;&#x9;<g>
&#x9;&#x9;&#x9;&#x9;<g>
&#x9;&#x9;&#x9;&#x9;&#x9;<path class="st0" d="M85.04,189.39v175.23h2.77l151.49,87.47v-49.36l-108.32-62.54v-41.91H239.3v-44.13H130.98v-41.9&#xA;&#x9;&#x9;&#x9;&#x9;&#x9;&#x9;L239.3,149.7v-49.38L85.04,189.39L85.04,189.39z M0.11,138.1v0.01H0V414.3h0.11l-0.01,0.01l239.19,138.1l0.01,0v-50.94&#xA;&#x9;&#x9;&#x9;&#x9;&#x9;&#x9;L44.13,388.78V163.64L239.3,50.95V0L0.11,138.1z"></path>
&#x9;&#x9;&#x9;&#x9;</g>
&#x9;&#x9;&#x9;</g>
&#x9;&#x9;&#x9;<path class="st1" d="M393.55,364.62V189.39l0,0L239.3,100.32v49.38l108.32,62.54v40.15h-0.01v1.75H239.3v44.13h108.31v41.91&#xA;&#x9;&#x9;&#x9;&#x9;L239.3,402.72v49.36l151.48-87.47H393.55z M478.59,138.11h-0.11l0.01-0.01L239.3,0v50.95l195.17,112.69v225.14L239.3,501.46&#xA;&#x9;&#x9;&#x9;&#x9;v50.94v0l239.19-138.1l-0.01-0.01h0.11V138.11z"></path>
&#x9;&#x9;</g>
&#x9;&#x9;<g>
&#x9;&#x9;&#x9;<path class="st1" d="M639.53,418.77V133.64h77.45c52.4,0,85.54,32.75,85.54,77.45c0,24.27-6.94,39.69-25.43,55.48&#xA;&#x9;&#x9;&#x9;&#x9;c27.35,15.41,42.38,37.38,42.38,69.36c0,50.86-38.14,82.84-90.16,82.84H639.53z M715.44,252.32c28.13,0,45.47-13.49,45.47-40.07&#xA;&#x9;&#x9;&#x9;&#x9;c0-27.36-17.34-40.46-47.78-40.46h-31.98v80.53H715.44z M725.84,380.62c29.67,0,52.02-16.95,52.02-44.7&#xA;&#x9;&#x9;&#x9;&#x9;c0-19.26-13.1-45.46-50.86-45.46h-45.85v90.16H725.84z"></path>
&#x9;&#x9;&#x9;<path class="st1" d="M864.56,418.77V133.64h41.61v246.98h99.02v38.15H864.56z"></path>
&#x9;&#x9;&#x9;<path class="st1" d="M1182.82,133.64h41.61V328.6c0,59.73-42,95.56-95.56,95.56s-95.56-36.22-95.56-95.56V133.64h41.61v191.88&#xA;&#x9;&#x9;&#x9;&#x9;c0,35.45,20.04,60.49,53.94,60.49c33.91,0,53.94-25.43,53.94-60.49V133.64z"></path>
&#x9;&#x9;&#x9;<path class="st1" d="M1278,418.77V133.64h153.74v38.14h-112.12v84h112.12v38.14h-112.12v86.69h112.12v38.15H1278z"></path>
&#x9;&#x9;&#x9;<path class="st1" d="M1857.51,348.26c-28.9,49.7-74.75,75.91-131.77,75.91c-78.99,0-144.11-70.9-144.11-146.8&#xA;&#x9;&#x9;&#x9;&#x9;c0-85.92,67.81-149.11,144.49-149.11c53.94,0,104.42,24.66,133.32,78.22h-50.09c-21.57-25.05-46.62-40.07-80.14-40.07&#xA;&#x9;&#x9;&#x9;&#x9;c-59.73,0-105.96,50.48-105.96,107.12c0,59.72,45.08,112.51,103.65,112.51c29.67,0,56.26-11.56,79.37-37.76H1857.51z"></path>
&#x9;&#x9;&#x9;<path class="st1" d="M2028.99,424.16c-78.99,0-146.03-67.81-146.03-144.88c0-87.46,67.04-151.04,147.19-151.04&#xA;&#x9;&#x9;&#x9;&#x9;c84.77,0,149.5,66.66,149.5,146.03C2179.64,360.58,2112.99,424.16,2028.99,424.16z M2138.03,276.97&#xA;&#x9;&#x9;&#x9;&#x9;c0-58.95-44.7-110.59-104.8-110.59c-77.06,0-108.66,66.27-108.66,108.66c0,57.41,41.61,110.97,106.73,110.97&#xA;&#x9;&#x9;&#x9;&#x9;C2098.73,386.02,2138.03,328.99,2138.03,276.97z"></path>
&#x9;&#x9;&#x9;<path class="st1" d="M2219.34,418.77V133.64h99.03c86.31,0,139.09,68.2,139.09,142.56c0,87.08-55.1,142.56-145.26,142.56H2219.34&#xA;&#x9;&#x9;&#x9;&#x9;z M2310.66,380.62c65.89,0,105.19-38.53,105.19-103.65c0-63.96-45.08-105.19-103.26-105.19h-51.63v208.84H2310.66z"></path>
&#x9;&#x9;&#x9;<path class="st1" d="M2505.25,418.77V133.64h41.61v285.13H2505.25z"></path>
&#x9;&#x9;&#x9;<path class="st1" d="M2787.68,418.77l-141.02-220.4h-0.77v220.4h-41.61V133.64h45.46l138.71,216.93h0.77V133.64h41.62v285.13&#xA;&#x9;&#x9;&#x9;&#x9;H2787.68z"></path>
&#x9;&#x9;&#x9;<path class="st1" d="M2987.28,315.12v-38.15h180.32c-2.7,94.79-74.36,147.19-150.27,147.19c-77.06,0-142.95-67.04-142.95-144.11&#xA;&#x9;&#x9;&#x9;&#x9;c0-92.47,70.9-151.81,142.95-151.81c54.71,0,101.72,25.81,130.62,77.06h-48.55c-24.27-27.74-48.55-38.92-80.14-38.92&#xA;&#x9;&#x9;&#x9;&#x9;c-55.49,0-103.26,52.4-103.26,108.66c0,60.1,47.39,110.97,104.8,110.97c45.08,0,81.3-25.04,99.41-70.89H2987.28z"></path>
&#x9;&#x9;</g>
&#x9;</g>
</g>
</svg>