<?xml version="1.0" encoding="utf-8"?>

<svg version="1.1" xmlns="http://www.w3.org/2000/svg" xmlns:xlink="http://www.w3.org/1999/xlink" x="0px" y="0px" viewBox="0 0 3446.83 3978.43" style="enable-background:new 0 0 3446.83 3978.43;" xml:space="preserve">

<g id="Layer_1_xA0_Image_1_">
</g>
<g id="BLUE_CODING">
</g>
<g id="THE_CODING_TALENT_WAREHOUSE">
&#x9;<g>
&#x9;&#x9;<g>
&#x9;&#x9;&#x9;<g>
&#x9;&#x9;&#x9;&#x9;<g>
&#x9;&#x9;&#x9;&#x9;&#x9;<path class="st0" d="M612.47,1363.97v1262h19.97l1091.02,629.93v-355.52L943.3,2449.93v-301.82h780.15v-317.8H943.3v-301.75&#xA;&#x9;&#x9;&#x9;&#x9;&#x9;&#x9;l780.15-450.44v-355.6L612.5,1363.97H612.47z M0.76,994.57v0.07H0v1989.11h0.76l-0.04,0.11l1722.65,994.57l0.07-0.03V3611.5&#xA;&#x9;&#x9;&#x9;&#x9;&#x9;&#x9;L317.84,2799.98V1178.53l1405.62-811.56V0L0.76,994.57z"></path>
&#x9;&#x9;&#x9;&#x9;</g>
&#x9;&#x9;&#x9;</g>
&#x9;&#x9;&#x9;<path class="st1" d="M2834.33,2625.97v-1262l0,0L1723.45,722.52v355.6l780.12,450.44v289.15h-0.04v12.6h-780.08v317.8h780.08&#xA;&#x9;&#x9;&#x9;&#x9;v301.82l-780.08,450.45v355.52l1090.94-629.93H2834.33z M3446.83,994.64h-0.8l0.07-0.07L1723.45,0v366.96l1405.58,811.56v1621.45&#xA;&#x9;&#x9;&#x9;&#x9;L1723.45,3611.5v366.89v0.03l1722.65-994.57l-0.04-0.11h0.76V994.64z"></path>
&#x9;&#x9;</g>
&#x9;</g>
</g>
</svg>